<svg width="204" height="219" viewBox="0 0 204 219" fill="none" xmlns="http://www.w3.org/2000/svg">
<path d="M127.929 219C120.274 219 114.07 212.8 114.07 205.152C114.07 197.503 120.274 191.303 127.929 191.303H135.833C141.856 191.303 146.305 189.799 149.179 186.789C152.191 183.917 153.696 179.472 153.696 173.454V136.114C153.696 128.865 155.818 123.052 160.061 118.676C162.356 116.382 166.239 114.308 169.416 112.853C171.277 112 171.401 109.154 169.605 108.172C166.395 106.416 162.402 103.986 160.061 101.647C155.818 97.2702 153.696 91.5257 153.696 84.4134V47.0738C153.696 41.0557 152.191 36.6105 149.179 33.7382C146.305 30.7292 141.856 29.2246 135.833 29.2246H127.929C120.274 29.2246 114.07 23.0245 114.07 15.3762C114.07 7.72787 120.274 1.5277 127.929 1.5277H144.252C157.255 1.5277 167.179 5.01546 174.023 11.991C181.004 18.8297 184.495 28.7459 184.495 41.7396V80.5153C184.495 86.5334 186 90.9786 189.012 93.8509C189.917 94.6769 190.975 95.3842 192.186 95.9726C198.203 98.8962 204 103.579 204 110.264C204 116.949 198.203 121.632 192.186 124.555C190.975 125.144 189.917 125.851 189.012 126.677C186 129.549 184.495 133.994 184.495 140.012V178.788C184.495 191.782 181.004 201.698 174.023 208.537C167.179 215.512 157.255 219 144.252 219H127.929Z" fill="#1AB28A"/>
<path d="M76.0713 217.472C83.7255 217.472 89.9305 211.272 89.9305 203.624C89.9305 195.976 83.7255 189.775 76.0714 189.775H68.1665C62.1438 189.775 57.6951 188.271 54.8207 185.262C51.8093 182.389 50.3036 177.944 50.3036 171.926V134.587C50.3036 127.338 48.1819 121.525 43.9387 117.148C41.6436 114.855 37.7606 112.78 34.5838 111.325C32.7227 110.473 32.5987 107.627 34.3946 106.644C37.6051 104.889 41.5978 102.458 43.9387 100.119C48.1819 95.7425 50.3036 89.998 50.3036 82.8857V45.5461C50.3036 39.528 51.8093 35.0828 54.8207 32.2105C57.6951 29.2015 62.1438 27.6969 68.1665 27.6969H76.0714C83.7256 27.6969 89.9305 21.4968 89.9305 13.8485C89.9305 6.20017 83.7255 0 76.0714 0H59.7484C46.7447 0 36.8209 3.48776 29.9768 10.4633C22.9959 17.302 19.5055 27.2182 19.5055 40.2119V78.9876C19.5055 85.0057 17.9998 89.4509 14.9884 92.3232C14.083 93.1492 13.0248 93.8565 11.8137 94.4449C5.79701 97.3685 0 102.051 0 108.736C0 115.421 5.79701 120.104 11.8137 123.027C13.0248 123.616 14.083 124.323 14.9884 125.149C17.9998 128.021 19.5055 132.467 19.5055 138.485V177.26C19.5055 190.254 22.9959 200.17 29.9768 207.009C36.8209 213.985 46.7447 217.472 59.7484 217.472H76.0713Z" fill="#1AB28A"/>
</svg>
