<svg width="600" height="600" viewBox="0 0 600 600" fill="none" xmlns="http://www.w3.org/2000/svg">
<rect width="600" height="600" fill="#222222"/>
<circle cx="397.867" cy="231.015" r="44.1837" fill="#222222" stroke="#F1792F" stroke-width="27.36"/>
<path d="M475.576 389.341H320.158C314.272 389.341 309.456 384.561 309.905 378.692C311.389 359.307 316.88 341.384 325.332 326.233C336.459 306.288 361.841 307.542 384.11 312.613C393.783 314.815 402.863 314.617 412.413 312.203C434.112 306.719 458.88 305.962 469.943 325.418C478.655 340.74 484.319 358.958 485.829 378.692C486.279 384.561 481.463 389.341 475.576 389.341Z" fill="#222222" stroke="#F1792F" stroke-width="27.36"/>
<circle cx="202.166" cy="232.915" r="44.1837" fill="#222222" stroke="#F1792F" stroke-width="27.36"/>
<path d="M279.877 391.24H124.459C118.573 391.24 113.757 386.461 114.206 380.592C115.69 361.206 121.181 343.283 129.633 328.133C140.76 308.188 166.142 309.441 188.411 314.512C198.084 316.715 207.164 316.516 216.714 314.102C238.413 308.618 263.181 307.862 274.244 327.318C282.956 342.639 288.62 360.858 290.13 380.592C290.579 386.461 285.764 391.24 279.877 391.24Z" fill="#222222" stroke="#F1792F" stroke-width="27.36"/>
<rect x="253.688" y="321.15" width="100.719" height="49.5473" fill="#222222"/>
<circle cx="299.888" cy="215.105" r="49.093" fill="#222222" stroke="#222222" stroke-width="76"/>
<path d="M386.23 391.022H213.544C207.003 391.022 201.653 385.712 202.152 379.191C203.8 357.651 209.902 337.737 219.293 320.903C231.656 298.742 259.858 300.134 284.602 305.769C295.349 308.216 305.438 307.996 316.049 305.314C340.159 299.22 367.679 298.38 379.972 319.997C389.652 337.021 395.945 357.264 397.623 379.191C398.122 385.712 392.771 391.022 386.23 391.022Z" fill="#222222" stroke="#222222" stroke-width="76"/>
<circle cx="299.888" cy="215.105" r="49.093" fill="#222222" stroke="#F1792F" stroke-width="30.4"/>
<path d="M386.23 391.022H213.544C207.003 391.022 201.653 385.712 202.152 379.191C203.8 357.651 209.902 337.737 219.293 320.903C231.656 298.742 259.858 300.134 284.602 305.769C295.349 308.216 305.438 307.996 316.049 305.314C340.159 299.22 367.679 298.38 379.972 319.997C389.652 337.021 395.945 357.264 397.623 379.191C398.122 385.712 392.771 391.022 386.23 391.022Z" fill="#222222" stroke="#F1792F" stroke-width="30.4"/>
<path d="M200 447H400" stroke="#F1792F" stroke-width="30" stroke-linecap="round"/>
</svg>
